<svg width="46" height="45" viewBox="0 0 46 45" fill="none" xmlns="http://www.w3.org/2000/svg">
<path fill-rule="evenodd" clip-rule="evenodd" d="M12.85 15.2498C12.85 14.8652 13.0028 14.4964 13.2747 14.2245C13.5466 13.9526 13.9154 13.7998 14.3 13.7998H31.7C32.0846 13.7998 32.4534 13.9526 32.7253 14.2245C32.9972 14.4964 33.15 14.8652 33.15 15.2498C33.15 15.6344 32.9972 16.0032 32.7253 16.2751C32.4534 16.547 32.0846 16.6998 31.7 16.6998H14.3C13.9154 16.6998 13.5466 16.547 13.2747 16.2751C13.0028 16.0032 12.85 15.6344 12.85 15.2498ZM12.85 22.4998C12.85 22.1152 13.0028 21.7464 13.2747 21.4745C13.5466 21.2026 13.9154 21.0498 14.3 21.0498H31.7C32.0846 21.0498 32.4534 21.2026 32.7253 21.4745C32.9972 21.7464 33.15 22.1152 33.15 22.4998C33.15 22.8844 32.9972 23.2532 32.7253 23.5251C32.4534 23.797 32.0846 23.9498 31.7 23.9498H14.3C13.9154 23.9498 13.5466 23.797 13.2747 23.5251C13.0028 23.2532 12.85 22.8844 12.85 22.4998ZM21.55 29.7498C21.55 29.3652 21.7028 28.9964 21.9747 28.7245C22.2466 28.4526 22.6154 28.2998 23 28.2998H31.7C32.0846 28.2998 32.4534 28.4526 32.7253 28.7245C32.9972 28.9964 33.15 29.3652 33.15 29.7498C33.15 30.1344 32.9972 30.5032 32.7253 30.7751C32.4534 31.047 32.0846 31.1998 31.7 31.1998H23C22.6154 31.1998 22.2466 31.047 21.9747 30.7751C21.7028 30.5032 21.55 30.1344 21.55 29.7498Z" fill="black"/>
</svg>
