<svg width="30" height="31" viewBox="0 0 30 31" fill="none" xmlns="http://www.w3.org/2000/svg">
<rect x="0.5" y="0.780273" width="29" height="29" rx="14.5" stroke="black" stroke-opacity="0.333"/>
<path d="M15.0031 11.6866C13.0156 11.6866 11.4125 13.2897 11.4125 15.2772C11.4125 17.2647 13.0156 18.8679 15.0031 18.8679C16.9906 18.8679 18.5938 17.2647 18.5938 15.2772C18.5938 13.2897 16.9906 11.6866 15.0031 11.6866ZM15.0031 17.6116C13.7188 17.6116 12.6688 16.5647 12.6688 15.2772C12.6688 13.9897 13.7156 12.9429 15.0031 12.9429C16.2906 12.9429 17.3375 13.9897 17.3375 15.2772C17.3375 16.5647 16.2875 17.6116 15.0031 17.6116ZM19.5781 11.5397C19.5781 12.0054 19.2031 12.3772 18.7406 12.3772C18.275 12.3772 17.9031 12.0022 17.9031 11.5397C17.9031 11.0772 18.2781 10.7022 18.7406 10.7022C19.2031 10.7022 19.5781 11.0772 19.5781 11.5397ZM21.9563 12.3897C21.9031 11.2679 21.6469 10.2741 20.825 9.45537C20.0063 8.63662 19.0125 8.38037 17.8906 8.32412C16.7344 8.2585 13.2688 8.2585 12.1125 8.32412C10.9938 8.37725 10 8.6335 9.17813 9.45225C8.35625 10.271 8.10313 11.2647 8.04688 12.3866C7.98125 13.5429 7.98125 17.0085 8.04688 18.1647C8.1 19.2866 8.35625 20.2804 9.17813 21.0991C10 21.9179 10.9906 22.1741 12.1125 22.2304C13.2688 22.296 16.7344 22.296 17.8906 22.2304C19.0125 22.1772 20.0063 21.921 20.825 21.0991C21.6438 20.2804 21.9 19.2866 21.9563 18.1647C22.0219 17.0085 22.0219 13.546 21.9563 12.3897ZM20.4625 19.4054C20.2188 20.0179 19.7469 20.4897 19.1313 20.7366C18.2094 21.1022 16.0219 21.0179 15.0031 21.0179C13.9844 21.0179 11.7938 21.0991 10.875 20.7366C10.2625 20.4929 9.79063 20.021 9.54375 19.4054C9.17813 18.4835 9.2625 16.296 9.2625 15.2772C9.2625 14.2585 9.18125 12.0679 9.54375 11.1491C9.7875 10.5366 10.2594 10.0647 10.875 9.81787C11.7969 9.45225 13.9844 9.53662 15.0031 9.53662C16.0219 9.53662 18.2125 9.45537 19.1313 9.81787C19.7438 10.0616 20.2156 10.5335 20.4625 11.1491C20.8281 12.071 20.7438 14.2585 20.7438 15.2772C20.7438 16.296 20.8281 18.4866 20.4625 19.4054Z" fill="black"/>
</svg>
